# This file uses centimeters as units for non-parametric coordinates.

mtllib SM_Bombito.mtl
g default
v -0.038006 -0.488536 0.256037
v 0.038216 -0.488536 0.256037
v 0.054905 -0.246416 0.208147
v 0.110683 -0.289619 0.133318
v -0.234045 -0.127591 0.047645
v -0.056060 -0.084388 0.122475
v 0.056271 -0.084388 0.122475
v 0.234255 -0.127591 0.047645
v -0.182583 -0.032602 -0.007197
v -0.009108 0.121966 -0.096437
v 0.009176 0.121966 -0.096437
v 0.195175 -0.047541 0.001428
v -0.038006 -0.470363 0.347917
v 0.058368 -0.471700 0.348181
v 0.076298 -0.214774 0.297363
v 0.151164 -0.262404 0.214440
v 0.063659 -0.017570 0.193092
v -0.077318 -0.028016 0.198615
v 0.270706 -0.070398 0.115186
v -0.270103 -0.070368 0.115159
v -0.011564 0.199140 -0.043032
v -0.210961 0.037238 0.048384
v 0.011692 0.199389 -0.043445
v 0.224228 0.022700 0.056149
v -0.045668 -0.535571 0.319580
v -0.045996 -0.536667 0.326933
v -0.045422 -0.531207 0.331976
v 0.058779 -0.532171 0.332137
v 0.057992 -0.537558 0.327148
v 0.056236 -0.536409 0.319889
v 0.181756 -0.288381 0.179091
v 0.182938 -0.291749 0.172815
v 0.178171 -0.292990 0.167341
v 0.302675 -0.075711 0.068067
v 0.304021 -0.078384 0.061387
v 0.299668 -0.083000 0.057568
v 0.250914 0.028127 0.005156
v 0.252166 0.025758 -0.001734
v 0.248788 0.019626 -0.004607
v 0.012551 0.212807 -0.100045
v 0.012529 0.210949 -0.107236
v 0.012289 0.204033 -0.109682
v -0.012512 0.212638 -0.099762
v -0.012501 0.210805 -0.106985
v -0.012264 0.203925 -0.109464
v -0.236023 0.045583 -0.004587
v -0.237086 0.043448 -0.011595
v -0.233798 0.037226 -0.014458
v -0.302575 -0.075685 0.068107
v -0.304021 -0.078355 0.061396
v -0.299742 -0.082943 0.057563
v -0.118879 -0.209061 0.242790
v -0.092508 -0.240171 0.268727
v -0.078749 -0.283870 0.284236
v -0.118817 -0.212784 0.237033
v -0.092539 -0.243869 0.262877
v -0.078892 -0.287614 0.278421
v -0.077196 -0.289666 0.272086
v -0.090798 -0.245777 0.256507
v -0.117247 -0.214592 0.230489
v -0.087313 -0.221967 0.292124
v -0.072647 -0.266406 0.307576
v -0.024201 -0.214774 0.297363
v -0.080307 -0.164203 0.270624
v -0.112812 -0.190746 0.267046
v -0.067712 -0.253539 0.202254
v -0.094904 -0.222377 0.175677
v -0.058506 -0.195810 0.181390
v -0.002362 -0.246416 0.208147
v -0.055057 -0.297492 0.218250
v -0.081416 -0.214774 0.297363
v -0.059616 -0.246416 0.208147
v 0.134389 0.442309 -0.322703
v 0.083631 0.494842 -0.346728
v 0.051065 0.222371 -0.147065
v 0.007736 0.332224 -0.160043
v 0.010433 0.483190 -0.254946
v 0.009254 0.200119 -0.103949
v -0.082070 0.274732 -0.110742
v -0.093563 0.417672 -0.157690
v 0.150965 0.462122 -0.290715
v 0.095140 0.508597 -0.324520
v 0.025425 0.501109 -0.226016
v 0.035473 0.365376 -0.106519
v 0.066491 0.240808 -0.117297
v -0.067046 0.292689 -0.081750
v 0.014958 0.206935 -0.092943
v -0.076337 0.438261 -0.124450
vt 0.333333 0.000000
vt 0.666667 0.000000
vt 0.666667 0.333333
vt 0.454260 0.333333
vt 0.333333 0.265996
vt 1.000000 0.333333
vt 1.000000 0.666667
vt 0.666667 0.666667
vt 0.000000 0.666667
vt 0.333333 0.666667
vt 0.333333 1.000000
vt 0.000000 1.000000
vt 0.666667 1.000000
vt 1.000000 1.000000
vt 0.277869 0.388797
vt 0.333333 0.423594
vt 0.333333 0.000000
vt 0.333333 0.263015
vt 0.499983 0.333333
vt 0.666667 0.333333
vt 0.666667 0.000000
vt 1.000000 0.333333
vt 0.666667 0.666667
vt 1.000000 0.666667
vt 0.000000 0.666667
vt 0.000000 1.000000
vt 0.333333 1.000000
vt 0.333333 0.666667
vt 0.666667 1.000000
vt 1.000000 1.000000
vt 0.333333 0.437442
vt 0.265897 0.400770
vt 0.333333 0.000000
vt 0.333333 0.000000
vt 0.666667 0.000000
vt 0.666667 0.000000
vt 0.333333 0.000000
vt 0.666667 0.000000
vt 1.000000 0.333333
vt 1.000000 0.666667
vt 0.333333 1.000000
vt -0.000000 1.000000
vt 0.000000 0.666667
vt 0.666667 1.000000
vt 1.000000 1.000000
vt 1.000000 0.333333
vt 1.000000 0.666667
vt 1.000000 1.000000
vt 0.666667 1.000000
vt 0.333333 1.000000
vt 0.000000 1.000000
vt 0.000000 0.666667
vt 1.000000 0.333333
vt 1.000000 0.666667
vt 1.000000 1.000000
vt 0.666667 1.000000
vt 0.333333 1.000000
vt 0.000000 1.000000
vt 0.000000 0.666667
vt 0.333333 0.276937
vt 0.333333 0.333333
vt 0.333333 0.333333
vt 0.333333 0.276180
vt 0.282626 0.384040
vt 0.281600 0.385066
vt 0.333333 0.276699
vt 0.282169 0.384498
vt 0.333333 0.333333
vt 0.333333 0.333333
vt 0.333333 0.333333
vt 0.347255 0.339995
vt 0.355559 0.343726
vt 0.666667 0.000000
vt 0.666667 0.666667
vt 0.333333 0.666667
vt 0.333333 0.000000
vt 0.000000 0.666667
vt 0.333333 1.000000
vt 0.000000 1.000000
vt 0.666667 1.000000
vt 0.666667 0.000000
vt 0.333333 0.000000
vt 0.333333 0.666667
vt 0.666667 0.666667
vt 0.000000 0.666667
vt 0.000000 1.000000
vt 0.333333 1.000000
vt 0.666667 1.000000
vt 0.333333 0.000000
vt 0.666667 0.000000
vt 0.666667 0.666667
vt 0.333333 0.666667
vt 0.000000 0.666667
vt 0.333333 1.000000
vt 0.000000 1.000000
vt 0.666667 1.000000
vn -0.000805 0.123994 0.992283
vn 0.363090 0.075148 0.928719
vn 0.300947 0.294903 0.906897
vn -0.000969 0.333104 0.942890
vn -0.002501 0.193625 0.981072
vn 0.363090 0.075148 0.928719
vn 0.679002 0.128294 0.722840
vn 0.300947 0.294903 0.906897
vn 0.300947 0.294903 0.906897
vn 0.679002 0.128294 0.722840
vn 0.568542 0.407703 0.714520
vn 0.268827 0.571008 0.775681
vn -0.427453 0.644161 0.634303
vn -0.217675 0.614387 0.758384
vn -0.259372 0.784735 0.562954
vn -0.415292 0.720728 0.555053
vn -0.217675 0.614387 0.758384
vn 0.268827 0.571008 0.775681
vn 0.256483 0.789335 0.557823
vn -0.259372 0.784735 0.562954
vn 0.268827 0.571008 0.775681
vn 0.568542 0.407703 0.714520
vn 0.415005 0.721934 0.553698
vn 0.256483 0.789335 0.557823
vn -0.427453 0.644161 0.634303
vn -0.439354 0.424697 0.791581
vn -0.175791 0.462539 0.868997
vn -0.217675 0.614387 0.758384
vn 0.000000 -0.194034 -0.980995
vn 0.003839 -0.193703 -0.981053
vn 0.001474 -0.324174 -0.945996
vn -0.338977 -0.262692 -0.903376
vn -0.107984 -0.185732 -0.976649
vn -0.107984 -0.185732 -0.976649
vn -0.338977 -0.262692 -0.903376
vn -0.646460 -0.162347 -0.745475
vn -0.338977 -0.262692 -0.903376
vn -0.305016 -0.549219 -0.778026
vn -0.470270 -0.506435 -0.722752
vn -0.646460 -0.162347 -0.745475
vn 0.383489 -0.631518 -0.673885
vn 0.361856 -0.688823 -0.628159
vn 0.148411 -0.723926 -0.673725
vn 0.231538 -0.618926 -0.750547
vn 0.231538 -0.618926 -0.750547
vn 0.148411 -0.723926 -0.673725
vn -0.147228 -0.724413 -0.673461
vn -0.305016 -0.549219 -0.778026
vn -0.305016 -0.549219 -0.778026
vn -0.147228 -0.724413 -0.673461
vn -0.363238 -0.689430 -0.626693
vn -0.470270 -0.506435 -0.722752
vn 0.383489 -0.631518 -0.673885
vn 0.231538 -0.618926 -0.750547
vn 0.198742 -0.460528 -0.865110
vn 0.439424 -0.424362 -0.791722
vn -0.005327 -0.309689 0.950823
vn -0.007373 -0.678507 0.734557
vn -0.007373 -0.678507 0.734557
vn -0.005277 -0.301833 0.953346
vn -0.007917 -0.988499 -0.151018
vn -0.003318 -0.830709 -0.556698
vn 0.319568 -0.727368 -0.607298
vn -0.007917 -0.988499 -0.151018
vn -0.005327 -0.309689 0.950823
vn -0.005277 -0.301833 0.953346
vn 0.363090 0.075148 0.928719
vn -0.000805 0.123994 0.992283
vn 0.861309 -0.102280 0.497681
vn 0.849873 -0.079607 0.520940
vn 0.679002 0.128294 0.722840
vn 0.363090 0.075148 0.928719
vn 0.785775 -0.152676 0.599373
vn 0.830472 0.177595 0.527992
vn 0.568542 0.407703 0.714520
vn 0.679002 0.128294 0.722840
vn -0.490578 0.846492 0.206846
vn -0.528734 0.816085 0.233336
vn -0.415292 0.720728 0.555053
vn -0.259372 0.784735 0.562954
vn -0.718527 0.604357 0.344197
vn -0.704907 0.608858 0.363865
vn -0.427453 0.644161 0.634303
vn -0.415292 0.720728 0.555053
vn 0.506671 0.838775 0.199351
vn -0.490578 0.846492 0.206846
vn -0.259372 0.784735 0.562954
vn 0.256483 0.789335 0.557823
vn 0.830472 0.177595 0.527992
vn 0.731354 0.583425 0.353180
vn 0.415005 0.721934 0.553698
vn 0.568542 0.407703 0.714520
vn 0.544005 0.808842 0.223233
vn 0.506671 0.838775 0.199351
vn 0.256483 0.789335 0.557823
vn 0.415005 0.721934 0.553698
vn -0.002740 -0.802028 -0.597281
vn 0.327820 -0.661992 -0.674018
vn 0.319568 -0.727368 -0.607298
vn -0.003318 -0.830709 -0.556698
vn 0.327820 -0.661992 -0.674018
vn 0.414163 -0.611890 -0.673839
vn 0.450480 -0.617060 -0.645217
vn 0.319568 -0.727368 -0.607298
vn 0.414163 -0.611890 -0.673839
vn 0.401254 -0.553909 -0.729506
vn 0.454119 -0.474049 -0.754356
vn 0.450480 -0.617060 -0.645217
vn 0.401254 -0.553909 -0.729506
vn 0.296567 -0.266177 -0.917168
vn 0.320679 -0.216110 -0.922205
vn 0.454119 -0.474049 -0.754356
vn 0.296567 -0.266177 -0.917168
vn 0.250912 -0.218932 -0.942927
vn 0.283427 -0.146255 -0.947776
vn 0.320679 -0.216110 -0.922205
vn 0.250912 -0.218932 -0.942927
vn -0.246190 -0.215898 -0.944870
vn -0.276542 -0.143998 -0.950152
vn 0.283427 -0.146255 -0.947776
vn -0.246190 -0.215898 -0.944870
vn -0.296597 -0.267053 -0.916904
vn -0.319661 -0.215469 -0.922708
vn -0.276542 -0.143998 -0.950152
vn -0.296597 -0.267053 -0.916904
vn -0.343745 -0.330662 -0.878921
vn -0.380499 -0.307122 -0.872294
vn -0.319661 -0.215469 -0.922708
vn 0.861309 -0.102280 0.497681
vn 0.917100 -0.298512 0.264232
vn 0.917100 -0.298512 0.264232
vn 0.849873 -0.079607 0.520940
vn 0.719373 -0.591482 -0.364213
vn 0.319568 -0.727368 -0.607298
vn 0.450480 -0.617060 -0.645217
vn 0.719373 -0.591482 -0.364213
vn 0.785775 -0.152676 0.599373
vn 0.884786 -0.331673 0.327332
vn 0.972565 -0.047346 0.227763
vn 0.830472 0.177595 0.527992
vn 0.728344 -0.594949 -0.339928
vn 0.450480 -0.617060 -0.645217
vn 0.454119 -0.474049 -0.754356
vn 0.758335 -0.373713 -0.534103
vn 0.830472 0.177595 0.527992
vn 0.972565 -0.047346 0.227763
vn 0.893927 0.448189 0.004680
vn 0.731354 0.583425 0.353180
vn 0.758335 -0.373713 -0.534103
vn 0.454119 -0.474049 -0.754356
vn 0.320679 -0.216110 -0.922205
vn 0.708731 -0.073062 -0.701685
vn 0.544005 0.808842 0.223233
vn 0.648278 0.742989 -0.166439
vn 0.605812 0.775811 -0.176378
vn 0.506671 0.838775 0.199351
vn 0.519383 0.195077 -0.831978
vn 0.320679 -0.216110 -0.922205
vn 0.283427 -0.146255 -0.947776
vn 0.474650 0.211637 -0.854352
vn 0.506671 0.838775 0.199351
vn 0.605812 0.775811 -0.176378
vn -0.589161 0.788946 -0.174511
vn -0.490578 0.846492 0.206846
vn 0.474650 0.211637 -0.854352
vn 0.283427 -0.146255 -0.947776
vn -0.276542 -0.143998 -0.950152
vn -0.464079 0.220264 -0.857971
vn -0.490578 0.846492 0.206846
vn -0.589161 0.788946 -0.174511
vn -0.633836 0.755898 -0.163922
vn -0.528734 0.816085 0.233336
vn -0.464079 0.220264 -0.857971
vn -0.276542 -0.143998 -0.950152
vn -0.319661 -0.215469 -0.922708
vn -0.509418 0.203806 -0.836036
vn -0.718527 0.604357 0.344197
vn -0.878232 0.478186 -0.006865
vn -0.878232 0.478186 -0.006865
vn -0.704907 0.608858 0.363865
vn -0.697610 -0.045424 -0.715036
vn -0.319661 -0.215469 -0.922708
vn -0.380499 -0.307122 -0.872294
vn -0.697610 -0.045424 -0.715036
vn -0.175791 0.462539 0.868997
vn -0.000969 0.333104 0.942890
vn 0.300947 0.294903 0.906897
vn 0.268827 0.571008 0.775681
vn -0.217675 0.614387 0.758384
vn 0.001474 -0.324174 -0.945996
vn 0.198742 -0.460528 -0.865110
vn 0.231538 -0.618926 -0.750547
vn -0.305016 -0.549219 -0.778026
vn -0.338977 -0.262692 -0.903376
vn -0.988145 -0.152189 0.020196
vn -0.901219 -0.424072 0.089261
vn -0.806613 -0.542255 -0.235234
vn -0.940085 -0.198022 -0.277537
vn -0.901219 -0.424072 0.089261
vn -0.731991 -0.637353 0.240772
vn -0.584717 -0.809336 -0.055510
vn -0.806613 -0.542255 -0.235234
vn -0.922387 -0.078646 0.378176
vn -0.954270 -0.078982 0.288323
vn -0.905805 -0.054409 0.420186
vn -0.910627 -0.083033 0.404801
vn -0.767668 -0.441752 0.464264
vn -0.779523 -0.376150 0.500854
vn -0.783118 -0.346032 0.516709
vn -0.770589 -0.350176 0.532513
vn -0.540205 -0.839767 -0.054503
vn -0.558443 -0.826538 -0.070541
vn -0.584717 -0.809336 -0.055510
vn -0.569084 -0.822147 -0.014757
vn -0.940085 -0.198022 -0.277537
vn -0.932617 -0.203489 -0.298024
vn -0.942191 -0.161998 -0.293315
vn -0.953928 -0.160236 -0.253664
vn -0.767668 -0.441752 0.464264
vn -0.702580 -0.675144 0.224858
vn -0.731991 -0.637353 0.240772
vn -0.779523 -0.376150 0.500854
vn -0.702580 -0.675144 0.224858
vn -0.569084 -0.822147 -0.014757
vn -0.584717 -0.809336 -0.055510
vn -0.731991 -0.637353 0.240772
vn -0.953928 -0.160236 -0.253664
vn -0.990914 -0.133492 -0.016385
vn -0.988145 -0.152189 0.020196
vn -0.940085 -0.198022 -0.277537
vn -0.990914 -0.133492 -0.016385
vn -0.954270 -0.078982 0.288323
vn -0.922387 -0.078646 0.378176
vn -0.988145 -0.152189 0.020196
vn -0.779523 -0.376150 0.500854
vn -0.887141 -0.266659 0.376661
vn -0.877610 -0.255739 0.405460
vn -0.783118 -0.346032 0.516709
vn -0.887141 -0.266659 0.376661
vn -0.922387 -0.078646 0.378176
vn -0.910627 -0.083033 0.404801
vn -0.877610 -0.255739 0.405460
vn -0.922387 -0.078646 0.378176
vn -0.887141 -0.266659 0.376661
vn -0.901219 -0.424072 0.089261
vn -0.988145 -0.152189 0.020196
vn -0.887141 -0.266659 0.376661
vn -0.779523 -0.376150 0.500854
vn -0.731991 -0.637353 0.240772
vn -0.901219 -0.424072 0.089261
vn -0.940085 -0.198022 -0.277537
vn -0.806613 -0.542255 -0.235234
vn -0.780348 -0.576029 -0.243409
vn -0.932617 -0.203489 -0.298024
vn -0.806613 -0.542255 -0.235234
vn -0.584717 -0.809336 -0.055510
vn -0.558443 -0.826538 -0.070541
vn -0.780348 -0.576029 -0.243409
vn -0.439354 0.424697 0.791581
vn -0.265426 0.254691 0.929883
vn -0.188635 0.322591 0.927552
vn -0.175791 0.462539 0.868997
vn -0.175791 0.462539 0.868997
vn -0.188635 0.322591 0.927552
vn -0.000969 0.333104 0.942890
vn -0.000969 0.333104 0.942890
vn -0.188635 0.322591 0.927552
vn -0.265426 0.254691 0.929883
vn -0.002501 0.193625 0.981072
vn 0.003839 -0.193703 -0.981053
vn 0.288382 -0.274042 -0.917462
vn 0.193065 -0.324727 -0.925893
vn 0.001474 -0.324174 -0.945996
vn 0.001474 -0.324174 -0.945996
vn 0.193065 -0.324727 -0.925893
vn 0.198742 -0.460528 -0.865110
vn 0.198742 -0.460528 -0.865110
vn 0.193065 -0.324727 -0.925893
vn 0.288382 -0.274042 -0.917462
vn 0.439424 -0.424362 -0.791722
vn 0.496450 0.656912 0.567454
vn 0.421658 0.626575 0.655445
vn 0.264088 0.437269 0.859682
vn 0.496450 0.656912 0.567454
vn 0.235051 0.149465 0.960423
vn 0.264088 0.437269 0.859682
vn 0.219640 0.305774 0.926423
vn 0.235051 0.149465 0.960423
vn 0.264088 0.437269 0.859682
vn 0.421658 0.626575 0.655445
vn 0.190555 0.500151 0.844711
vn 0.219640 0.305774 0.926423
vn -0.535532 -0.516820 -0.667909
vn -0.535532 -0.516820 -0.667909
vn -0.420001 -0.408695 -0.810288
vn -0.492414 -0.491397 -0.718372
vn -0.446338 -0.327824 -0.832655
vn -0.446338 -0.327824 -0.832655
vn -0.411278 -0.367255 -0.834251
vn -0.420001 -0.408695 -0.810288
vn -0.420001 -0.408695 -0.810288
vn -0.411278 -0.367255 -0.834251
vn -0.367812 -0.413099 -0.833105
vn -0.492414 -0.491397 -0.718372
vn 0.693356 0.394002 -0.603340
vn 0.693356 0.394002 -0.603340
vn 0.693356 0.394002 -0.603340
vn 0.693356 0.394002 -0.603340
vn -0.474730 0.836928 -0.272365
vn -0.474730 0.836928 -0.272365
vn -0.564933 0.799861 -0.202664
vn -0.581675 0.791243 -0.188650
vn 0.705108 -0.705479 0.071565
vn 0.705108 -0.705479 0.071565
vn 0.705108 -0.705479 0.071565
vn 0.705108 -0.705479 0.071565
vn 0.693354 0.394001 -0.603344
vn 0.693354 0.394001 -0.603344
vn 0.693354 0.394001 -0.603344
vn 0.693354 0.394001 -0.603344
vn -0.847188 -0.124920 0.516398
vn -0.693354 -0.394001 0.603344
vn -0.693354 -0.394001 0.603343
vn -0.860878 -0.088652 0.501029
vn 0.597260 -0.782665 0.175260
vn 0.597260 -0.782665 0.175260
vn 0.597260 -0.782665 0.175260
vn 0.597260 -0.782665 0.175260
vn -0.564933 0.799861 -0.202664
vn -0.624270 0.766435 -0.151211
vn -0.624270 0.766435 -0.151211
vn -0.581675 0.791243 -0.188650
vn -0.902276 0.067329 0.425870
vn -0.847188 -0.124920 0.516398
vn -0.860878 -0.088652 0.501029
vn -0.902276 0.067329 0.425870
s off
g polySurface3
usemtl SM_Bombito:initialShadingGroup
f 13/1/1 14/2/2 15/3/3 63/4/4 62/5/5
f 14/2/6 16/6/7 15/3/8
f 15/3/9 16/6/10 19/7/11 17/8/12
f 20/9/13 18/10/14 21/11/15 22/12/16
f 18/10/17 17/8/18 23/13/19 21/11/20
f 17/8/21 19/7/22 24/14/23 23/13/24
f 20/9/25 65/15/26 64/16/27 18/10/28
f 1/17/29 70/18/30 69/19/31 3/20/32 2/21/33
f 2/21/34 3/20/35 4/22/36
f 3/20/37 7/23/38 8/24/39 4/22/40
f 5/25/41 9/26/42 10/27/43 6/28/44
f 6/28/45 10/27/46 11/29/47 7/23/48
f 7/23/49 11/29/50 12/30/51 8/24/52
f 5/25/53 6/28/54 68/31/55 67/32/56
f 27/33/57 26/34/58 29/35/59 28/36/60
f 26/34/61 25/37/62 30/38/63 29/35/64
f 27/33/65 28/36/66 14/2/67 13/1/68
f 28/36/69 31/39/70 16/6/71 14/2/72
f 31/39/73 34/40/74 19/7/75 16/6/76
f 43/41/77 46/42/78 22/12/79 21/11/80
f 46/42/81 49/43/82 20/9/83 22/12/84
f 40/44/85 43/41/86 21/11/87 23/13/88
f 34/40/89 37/45/90 24/14/91 19/7/92
f 37/45/93 40/44/94 23/13/95 24/14/96
f 1/17/97 2/21/98 30/38/99 25/37/100
f 2/21/101 4/22/102 33/46/103 30/38/104
f 4/22/105 8/24/106 36/47/107 33/46/108
f 8/24/109 12/30/110 39/48/111 36/47/112
f 12/30/113 11/29/114 42/49/115 39/48/116
f 11/29/117 10/27/118 45/50/119 42/49/120
f 10/27/121 9/26/122 48/51/123 45/50/124
f 9/26/125 5/25/126 51/52/127 48/51/128
f 28/36/129 29/35/130 32/53/131 31/39/132
f 29/35/133 30/38/134 33/46/135 32/53/136
f 31/39/137 32/53/138 35/54/139 34/40/140
f 32/53/141 33/46/142 36/47/143 35/54/144
f 34/40/145 35/54/146 38/55/147 37/45/148
f 35/54/149 36/47/150 39/48/151 38/55/152
f 37/45/153 38/55/154 41/56/155 40/44/156
f 38/55/157 39/48/158 42/49/159 41/56/160
f 40/44/161 41/56/162 44/57/163 43/41/164
f 41/56/165 42/49/166 45/50/167 44/57/168
f 43/41/169 44/57/170 47/58/171 46/42/172
f 44/57/173 45/50/174 48/51/175 47/58/176
f 46/42/177 47/58/178 50/59/179 49/43/180
f 47/58/181 48/51/182 51/52/183 50/59/184
f 64/16/185 63/4/186 15/3/187 17/8/188 18/10/189
f 69/19/190 68/31/191 6/28/192 7/23/193 3/20/194
f 57/60/195 56/61/196 59/62/197 58/63/198
f 56/61/199 55/64/200 60/65/201 59/62/202
f 54/66/203 27/33/204 13/1/205 62/5/206
f 49/43/207 52/67/208 65/15/209 20/9/210
f 5/25/211 67/32/212 60/65/213 51/52/214
f 58/63/215 70/18/216 1/17/217 25/37/218
f 49/43/219 50/59/220 55/64/221 52/67/222
f 50/59/223 51/52/224 60/65/225 55/64/226
f 25/37/227 26/34/228 57/60/229 58/63/230
f 26/34/231 27/33/232 54/66/233 57/60/234
f 52/67/235 53/68/236 61/69/237 65/15/238
f 53/68/239 54/66/240 62/5/241 61/69/242
f 54/66/243 53/68/244 56/61/245 57/60/246
f 53/68/247 52/67/248 55/64/249 56/61/250
f 58/63/251 59/62/252 66/70/253 70/18/254
f 59/62/255 60/65/256 67/32/257 66/70/258
f 65/15/259 61/69/260 71/71/261 64/16/262
f 64/16/263 71/71/264 63/4/265
f 63/4/266 71/71/267 61/69/268 62/5/269
f 70/18/270 66/70/271 72/72/272 69/19/273
f 69/19/274 72/72/275 68/31/276
f 68/31/277 72/72/278 66/70/279 67/32/280
f 82/73/281 83/74/282 84/75/283 81/76/284
f 85/77/285 84/75/286 86/78/287 87/79/288
f 84/75/289 83/74/290 88/80/291 86/78/292
f 74/81/293 73/82/294 76/83/295 77/84/296
f 75/85/297 78/86/298 79/87/299 76/83/300
f 76/83/301 79/87/302 80/88/303 77/84/304
f 73/89/305 74/90/306 82/73/307 81/76/308
f 82/73/309 74/90/310 77/91/311 83/74/312
f 81/76/313 84/75/314 76/92/315 73/89/316
f 75/93/317 76/92/318 84/75/319 85/77/320
f 79/94/321 78/95/322 87/79/323 86/78/324
f 78/95/325 75/93/326 85/77/327 87/79/328
f 77/91/329 80/96/330 88/80/331 83/74/332
f 80/96/333 79/94/334 86/78/335 88/80/336
