# This file uses centimeters as units for non-parametric coordinates.

mtllib SM_Nene.mtl
g default
v -1.015559 -1.052699 0.198483
v -0.997768 -1.060068 0.198483
v -0.997768 -1.052699 0.216274
v -0.997768 -1.034908 0.223644
v -1.015559 -1.034908 0.216274
v -1.022928 -1.034908 0.198483
v 1.015559 -1.052699 0.198483
v 1.022928 -1.034908 0.198483
v 1.015559 -1.034908 0.216274
v 0.997768 -1.034908 0.223644
v 0.997768 -1.052699 0.216274
v 0.997768 -1.060068 0.198483
v -1.015559 0.978419 0.198483
v -1.022928 0.960628 0.198483
v -1.015559 0.960628 0.216274
v -0.997768 0.960628 0.223644
v -0.997768 0.978419 0.216274
v -0.997768 0.985788 0.198483
v 1.015559 0.978419 0.198483
v 0.997768 0.985788 0.198483
v 0.997768 0.978419 0.216274
v 0.997768 0.960628 0.223644
v 1.015559 0.960628 0.216274
v 1.022928 0.960628 0.198483
v -1.015559 0.960628 -0.020616
v -1.022928 0.960628 -0.002825
v -1.015559 0.978419 -0.002825
v -0.997768 0.985788 -0.002825
v -0.997768 0.978419 -0.020616
v -0.997768 0.960628 -0.027985
v 1.015559 0.960628 -0.020616
v 0.997768 0.960628 -0.027985
v 0.997768 0.978419 -0.020616
v 0.997768 0.985788 -0.002825
v 1.015559 0.978419 -0.002825
v 1.022928 0.960628 -0.002825
v -1.015559 -1.052699 -0.002825
v -1.022928 -1.034908 -0.002825
v -1.015559 -1.034908 -0.020616
v -0.997768 -1.034908 -0.027985
v -0.997768 -1.052699 -0.020616
v -0.997768 -1.060068 -0.002825
v 1.015559 -1.052699 -0.002825
v 0.997768 -1.060068 -0.002825
v 0.997768 -1.052699 -0.020616
v 0.997768 -1.034908 -0.027985
v 1.015559 -1.034908 -0.020616
v 1.022928 -1.034908 -0.002825
v -1.012289 -1.049429 0.213004
v 1.012289 -1.049429 0.213004
v -1.012289 0.975149 0.213004
v 1.012289 0.975149 0.213004
v -1.012289 0.975149 -0.017346
v 1.012289 0.975149 -0.017346
v -1.012289 -1.049429 -0.017346
v 1.012289 -1.049429 -0.017346
v -0.567919 -0.344325 0.597085
v -0.563011 -0.349531 0.596763
v -0.559387 -0.344924 0.600362
v -0.556745 -0.338353 0.599032
v -0.563673 -0.336388 0.598781
v -0.568953 -0.337698 0.594572
v 0.099779 -0.725366 0.401113
v 0.104523 -0.722036 0.396905
v 0.105132 -0.718062 0.402485
v 0.100761 -0.713578 0.406052
v 0.097104 -0.719570 0.407680
v 0.093392 -0.724127 0.404107
v -0.283856 1.059397 -0.218012
v -0.287694 1.054790 -0.213714
v -0.281983 1.056434 -0.208708
v -0.274877 1.054608 -0.208125
v -0.274793 1.059087 -0.213969
v -0.277303 1.058601 -0.221306
v 0.777347 0.453790 -0.529478
v 0.772604 0.459441 -0.529457
v 0.774986 0.460000 -0.522081
v 0.773845 0.456124 -0.515928
v 0.778040 0.451501 -0.519827
v 0.777008 0.447186 -0.526207
v -0.325671 1.020350 -0.287073
v -0.324990 1.024252 -0.280971
v -0.321076 1.028558 -0.284706
v -0.314387 1.027704 -0.287578
v -0.318435 1.022725 -0.291960
v -0.321230 1.015987 -0.290963
v 0.734487 0.415340 -0.598232
v 0.727492 0.417503 -0.598766
v 0.731600 0.423374 -0.600362
v 0.735815 0.427895 -0.596527
v 0.740208 0.422661 -0.596546
v 0.739894 0.416544 -0.593518
v -0.606240 -0.376254 0.528601
v -0.607273 -0.369626 0.526089
v -0.607679 -0.373053 0.520140
v -0.603098 -0.376974 0.516193
v -0.603393 -0.381589 0.521721
v -0.601331 -0.381459 0.528281
v 0.061458 -0.757295 0.332629
v 0.055072 -0.756055 0.335625
v 0.053098 -0.756234 0.329039
v 0.054408 -0.752199 0.323213
v 0.061127 -0.754726 0.323843
v 0.066202 -0.753964 0.328422
v -0.564243 -0.341895 0.600240
v 0.101525 -0.721834 0.404836
v -0.280400 1.060068 -0.212936
v 0.778554 0.455745 -0.523741
v -0.322890 1.024810 -0.288988
v 0.736210 0.420312 -0.599988
v -0.607205 -0.377690 0.523464
v 0.058563 -0.757630 0.328059
vt 0.378075 0.975003
vt 0.378075 0.003075
vt 0.621925 0.975003
vt 0.649997 0.003075
vt 0.378075 0.246925
vt 0.621925 0.246925
vt 0.649997 0.246925
vt 0.149998 0.003075
vt 0.378075 0.475002
vt 0.621925 0.475002
vt 0.850002 0.246925
vt 0.850003 0.003075
vt 0.621925 0.774997
vt 0.378075 0.746925
vt 0.621925 0.746925
vt 0.621925 0.003075
vt 0.378075 0.274998
vt 0.621925 0.274998
vt 0.378075 0.503075
vt 0.621925 0.503075
vt 0.378075 0.774997
vt 0.350002 0.003075
vt 0.350002 0.246925
vt 0.149998 0.246925
vt 0.375000 0.984230
vt 0.359229 -0.000000
vt 0.378704 -0.000000
vt 0.378704 1.000000
vt 0.371414 0.002900
vt 0.640770 -0.000000
vt 0.625000 0.984230
vt 0.628586 0.002900
vt 0.621296 1.000000
vt 0.621296 -0.000000
vt 0.359229 0.250000
vt 0.375000 0.265771
vt 0.371356 0.247308
vt 0.377692 0.253645
vt 0.625000 0.265771
vt 0.640771 0.250000
vt 0.622308 0.253645
vt 0.628644 0.247308
vt 0.125000 0.246296
vt 0.375000 0.503704
vt 0.375000 0.484229
vt 0.140771 0.250000
vt 0.377900 0.496413
vt 0.625000 0.503704
vt 0.875000 0.246296
vt 0.622100 0.496413
vt 0.859229 0.250000
vt 0.625000 0.484229
vt 0.140771 -0.000000
vt 0.375000 0.765770
vt 0.375000 0.746296
vt 0.125000 0.003704
vt 0.377900 0.753587
vt 0.625000 0.765770
vt 0.859230 -0.000000
vt 0.622100 0.753587
vt 0.875000 0.003704
vt 0.625000 0.746296
vt 0.375000 1.000000
vt 0.375000 0.000000
vt 0.625000 0.000000
vt 0.625000 1.000000
vt 0.375000 0.250000
vt 0.625000 0.250000
vt 0.125000 0.250000
vt 0.375000 0.500000
vt 0.625000 0.500000
vt 0.875000 0.250000
vt 0.125000 0.000000
vt 0.375000 0.750000
vt 0.625000 0.750000
vt 0.875000 0.000000
vt 0.377783 0.978337
vt 0.375000 0.986495
vt 0.375000 0.763506
vt 0.377783 0.771663
vt 0.361495 -0.000000
vt 0.353337 0.001343
vt 0.146663 0.001343
vt 0.138506 -0.000000
vt 0.378005 0.001450
vt 0.379104 -0.000000
vt 0.620896 -0.000000
vt 0.622850 0.001450
vt 0.379104 1.000000
vt 0.622217 0.978337
vt 0.620896 1.000000
vt 0.372581 0.001497
vt 0.372135 0.249128
vt 0.350002 0.248451
vt 0.377428 0.248550
vt 0.646663 0.001343
vt 0.638505 -0.000000
vt 0.861494 -0.000000
vt 0.853337 0.001343
vt 0.625000 0.986495
vt 0.622217 0.771663
vt 0.625000 0.763506
vt 0.627889 0.001496
vt 0.628165 0.249129
vt 0.623110 0.248550
vt 0.649998 0.248451
vt 0.359249 0.250000
vt 0.140152 0.250000
vt 0.148152 0.248565
vt 0.375000 0.265751
vt 0.377020 0.274998
vt 0.377020 0.475003
vt 0.375000 0.484848
vt 0.376760 0.254222
vt 0.623559 0.254224
vt 0.622980 0.274998
vt 0.625000 0.265726
vt 0.625000 0.485453
vt 0.623129 0.476848
vt 0.640726 0.250000
vt 0.851848 0.248565
vt 0.860453 0.250000
vt 0.125000 0.246635
vt 0.125000 0.002850
vt 0.375000 0.503365
vt 0.376890 0.501450
vt 0.377150 0.748550
vt 0.375000 0.747150
vt 0.376687 0.495905
vt 0.623061 0.496151
vt 0.622572 0.501450
vt 0.625000 0.503012
vt 0.625000 0.747146
vt 0.621995 0.748550
vt 0.875000 0.246988
vt 0.875000 0.002854
vt 0.377341 0.753149
vt 0.622198 0.753149
vt 0.375000 0.000000
vt 0.375000 1.000000
vt 0.625000 1.000000
vt 0.625000 0.000000
vt 0.375000 0.250000
vt 0.625000 0.250000
vt 0.375000 0.500000
vt 0.125000 0.250000
vt 0.875000 0.250000
vt 0.625000 0.500000
vt 0.375000 0.750000
vt 0.125000 0.000000
vt 0.875000 0.000000
vt 0.625000 0.750000
vn -0.003556 -0.999432 0.033519
vn -0.380227 -0.924650 0.021207
vn -0.380227 -0.924650 -0.021207
vn -0.003556 -0.999432 -0.033519
vn -0.924649 -0.380231 0.021207
vn -0.999432 -0.003556 0.033519
vn -0.999432 -0.003556 -0.033519
vn -0.924649 -0.380231 -0.021207
vn -0.003649 -0.003649 0.999987
vn -0.002265 -0.382429 0.923982
vn 0.002265 -0.382429 0.923982
vn 0.003649 -0.003649 0.999987
vn -0.002265 -0.923982 0.382429
vn 0.003556 -0.999432 0.033519
vn 0.002265 -0.923982 0.382429
vn -0.923982 -0.002265 0.382429
vn -0.923982 0.002265 0.382429
vn -0.999432 0.003556 0.033519
vn -0.382426 -0.002265 0.923983
vn -0.003649 0.003649 0.999987
vn -0.382426 0.002265 0.923983
vn 0.999432 -0.003556 0.033519
vn 0.924649 -0.380231 0.021207
vn 0.924649 -0.380231 -0.021207
vn 0.999432 -0.003556 -0.033519
vn 0.380227 -0.924650 0.021207
vn 0.003556 -0.999432 -0.033519
vn 0.380227 -0.924650 -0.021207
vn 0.382426 -0.002265 0.923983
vn 0.382426 0.002265 0.923983
vn 0.003649 0.003649 0.999987
vn 0.923982 -0.002265 0.382429
vn 0.999432 0.003556 0.033519
vn 0.923982 0.002265 0.382429
vn -0.924649 0.380231 0.021207
vn -0.924649 0.380231 -0.021207
vn -0.999432 0.003556 -0.033519
vn -0.380227 0.924650 0.021207
vn -0.003556 0.999432 0.033519
vn -0.003556 0.999432 -0.033519
vn -0.380227 0.924650 -0.021207
vn -0.002265 0.923982 0.382429
vn 0.002265 0.923982 0.382429
vn 0.003556 0.999432 0.033519
vn -0.002265 0.382429 0.923982
vn 0.002265 0.382429 0.923982
vn 0.380227 0.924650 0.021207
vn 0.380227 0.924650 -0.021207
vn 0.003556 0.999432 -0.033519
vn 0.924649 0.380231 0.021207
vn 0.999432 0.003556 -0.033519
vn 0.924649 0.380231 -0.021207
vn -0.923982 0.002265 -0.382429
vn -0.923982 -0.002265 -0.382429
vn -0.382426 0.002265 -0.923983
vn -0.003649 0.003649 -0.999987
vn -0.003649 -0.003649 -0.999987
vn -0.382426 -0.002265 -0.923983
vn -0.002265 0.382429 -0.923982
vn 0.002265 0.382429 -0.923982
vn 0.003649 0.003649 -0.999987
vn -0.002265 0.923982 -0.382429
vn 0.002265 0.923982 -0.382429
vn 0.382426 0.002265 -0.923983
vn 0.382426 -0.002265 -0.923983
vn 0.003649 -0.003649 -0.999987
vn 0.923982 0.002265 -0.382429
vn 0.923982 -0.002265 -0.382429
vn -0.002265 -0.923982 -0.382429
vn 0.002265 -0.923982 -0.382429
vn -0.002265 -0.382429 -0.923982
vn 0.002265 -0.382429 -0.923982
vn -0.887919 -0.325271 0.325269
vn -0.325266 -0.887920 0.325268
vn -0.325266 -0.325267 0.887921
vn 0.325266 -0.887921 0.325268
vn 0.887919 -0.325269 0.325269
vn 0.325267 -0.325267 0.887921
vn -0.325268 0.887918 0.325274
vn -0.887918 0.325270 0.325270
vn -0.325266 0.325267 0.887921
vn 0.887918 0.325271 0.325270
vn 0.325269 0.887918 0.325272
vn 0.325266 0.325267 0.887921
vn -0.325266 0.325267 -0.887921
vn -0.887918 0.325271 -0.325270
vn -0.325269 0.887918 -0.325272
vn 0.887918 0.325270 -0.325270
vn 0.325266 0.325267 -0.887921
vn 0.325268 0.887918 -0.325274
vn -0.325266 -0.887921 -0.325268
vn -0.887919 -0.325269 -0.325269
vn -0.325267 -0.325267 -0.887921
vn 0.887919 -0.325271 -0.325269
vn 0.325266 -0.887920 -0.325268
vn 0.325266 -0.325267 -0.887921
vn -0.283701 -0.778564 0.559779
vn -0.560161 -0.568308 0.602698
vn -0.577924 -0.583104 0.570959
vn -0.311521 -0.801743 0.510062
vn -0.871383 0.051466 0.487896
vn -0.860840 0.373024 0.346133
vn -0.888869 0.349663 0.296055
vn -0.889144 0.036666 0.456157
vn 0.449891 0.376885 0.809664
vn 0.313559 0.065957 0.947275
vn 0.316549 0.064250 0.946398
vn 0.453897 0.374599 0.808488
vn -0.087647 -0.569756 0.817127
vn -0.278477 -0.781544 0.558246
vn -0.084349 -0.571638 0.816159
vn -0.636161 0.478602 0.605177
vn -0.635903 0.480359 0.604055
vn -0.860534 0.375619 0.344082
vn 0.080075 0.486931 0.869762
vn 0.450286 0.380092 0.807944
vn 0.080541 0.488742 0.868702
vn 0.804117 -0.577130 -0.142536
vn 0.607495 -0.792497 0.053840
vn 0.589733 -0.807296 0.022101
vn 0.776086 -0.600492 -0.192614
vn 0.024530 -0.901977 0.431086
vn -0.306297 -0.804724 0.508529
vn 0.006771 -0.916775 0.399346
vn 0.721929 0.120630 0.681372
vn 0.722759 0.122237 0.680204
vn 0.455609 0.377050 0.806383
vn 0.903572 -0.400085 0.153261
vn 0.805213 -0.575038 -0.144789
vn 0.904420 -0.398661 0.151966
vn -0.708140 0.699245 0.097953
vn -0.724125 0.686546 0.065553
vn -0.887847 0.352867 0.295317
vn -0.056570 0.925655 -0.374116
vn 0.307083 0.804410 -0.508552
vn 0.279031 0.781121 -0.558562
vn -0.072291 0.910084 -0.408070
vn 0.436824 0.875292 -0.207482
vn 0.439356 0.873848 -0.208222
vn 0.310842 0.802150 -0.509836
vn 0.531975 0.668238 0.520059
vn 0.534831 0.666610 0.519218
vn 0.626890 0.531709 -0.569468
vn 0.609057 0.516894 -0.601556
vn 0.283290 0.779167 -0.559147
vn 0.900984 -0.231009 -0.367236
vn 0.777944 -0.597771 -0.193579
vn 0.883212 -0.245992 -0.399281
vn -0.982235 0.186062 -0.024411
vn -0.982591 0.184301 -0.023407
vn -0.744976 -0.213720 -0.631929
vn -0.454343 -0.373707 -0.808650
vn -0.454649 -0.376868 -0.807010
vn -0.745533 -0.215515 -0.630662
vn -0.300053 -0.032166 -0.953380
vn -0.297529 -0.033846 -0.954113
vn -0.449030 -0.376662 -0.810246
vn 0.105301 0.596794 -0.795455
vn 0.107427 0.595448 -0.796179
vn -0.125178 -0.567575 -0.813750
vn -0.125845 -0.569158 -0.812541
vn -0.450797 -0.379066 -0.808140
vn 0.549418 -0.688151 -0.473907
vn 0.548620 -0.689531 -0.472825
vn -0.455053 -0.875873 0.160540
vn -0.451755 -0.877756 0.159572
vn -0.529907 -0.636815 -0.560058
vn -0.526917 -0.638522 -0.560936
vn -0.671597 0.207211 0.711352
vn -0.349434 -0.434377 0.830188
vn 0.058156 0.209978 0.975975
vn 0.139607 -0.713455 0.686653
vn 0.743075 -0.600118 0.296139
vn 0.551326 -0.071444 0.831225
vn 0.095083 0.985915 -0.137592
vn -0.573201 0.740350 0.351174
vn 0.187986 0.749455 0.634805
vn 0.983463 -0.147195 -0.105517
vn 0.700253 0.640894 -0.314484
vn 0.791434 0.405635 0.457266
vn -0.574796 0.074273 -0.814919
vn -0.834560 0.519841 -0.182416
vn -0.145361 0.744563 -0.651533
vn 0.682818 -0.391545 -0.616808
vn -0.047179 -0.271810 -0.961194
vn 0.399157 0.397816 -0.826085
vn -0.665456 -0.697623 0.265499
vn -0.987595 -0.056100 0.146656
vn -0.750917 -0.464101 -0.469823
vn 0.427064 -0.863424 -0.268543
vn -0.176360 -0.976743 0.121944
vn -0.257710 -0.745571 -0.614581
s 1
g SM_Nene
usemtl initialShadingGroup
f 2/1/1 1/25/2 37/54/3 42/21/4
s 2
f 1/26/5 6/22/6 38/8/7 37/53/8
s 3
f 4/2/9 3/27/10 11/34/11 10/16/12
s 1
f 3/28/13 2/1/1 12/3/14 11/33/15
s 2
f 6/22/6 5/29/16 15/37/17 14/23/18
s 3
f 5/29/19 4/2/9 16/5/20 15/37/21
s 4
f 8/4/22 7/30/23 43/59/24 48/12/25
s 1
f 7/31/26 12/3/14 44/13/27 43/58/28
s 3
f 10/16/12 9/32/29 23/42/30 22/6/31
s 4
f 9/32/32 8/4/22 24/7/33 23/42/34
s 2
f 14/23/18 13/35/35 27/46/36 26/24/37
s 5
f 13/36/38 18/17/39 28/9/40 27/45/41
f 18/17/39 17/38/42 21/41/43 20/18/44
s 3
f 17/38/45 16/5/20 22/6/31 21/41/46
s 5
f 20/18/44 19/39/47 35/52/48 34/10/49
s 4
f 19/40/50 24/7/33 36/11/51 35/51/52
s 2
f 26/24/37 25/43/53 39/56/54 38/8/7
s 6
f 25/44/55 30/19/56 40/14/57 39/55/58
f 30/19/56 29/47/59 33/50/60 32/20/61
s 5
f 29/47/62 28/9/40 34/10/49 33/50/63
s 6
f 32/20/61 31/48/64 47/62/65 46/15/66
s 4
f 31/49/67 36/11/51 48/12/25 47/61/68
s 1
f 42/21/4 41/57/69 45/60/70 44/13/27
s 6
f 41/57/71 40/14/57 46/15/66 45/60/72
s 3
f 4/2/9 10/16/12 22/6/31 16/5/20
s 5
f 18/17/39 20/18/44 34/10/49 28/9/40
s 6
f 30/19/56 32/20/61 46/15/66 40/14/57
s 1
f 42/21/4 44/13/27 12/3/14 2/1/1
s 4
f 8/4/22 48/12/25 36/11/51 24/7/33
s 2
f 38/8/7 6/22/6 14/23/18 26/24/37
f 5/29/16 6/22/6 1/26/5 49/64/73
s 1
f 1/25/2 2/1/1 3/28/13 49/63/74
s 3
f 3/27/10 4/2/9 5/29/19 49/64/75
s 1
f 11/33/15 12/3/14 7/31/26 50/66/76
s 4
f 7/30/23 8/4/22 9/32/32 50/65/77
s 3
f 9/32/29 10/16/12 11/34/11 50/65/78
s 5
f 17/38/42 18/17/39 13/36/38 51/67/79
s 2
f 13/35/35 14/23/18 15/37/17 51/67/80
s 3
f 15/37/21 16/5/20 17/38/45 51/67/81
s 4
f 23/42/34 24/7/33 19/40/50 52/68/82
s 5
f 19/39/47 20/18/44 21/41/43 52/68/83
s 3
f 21/41/46 22/6/31 23/42/30 52/68/84
s 6
f 29/47/59 30/19/56 25/44/55 53/70/85
s 2
f 25/43/53 26/24/37 27/46/36 53/69/86
s 5
f 27/45/41 28/9/40 29/47/62 53/70/87
s 4
f 35/51/52 36/11/51 31/49/67 54/72/88
s 6
f 31/48/64 32/20/61 33/50/60 54/71/89
s 5
f 33/50/63 34/10/49 35/52/48 54/71/90
s 1
f 41/57/69 42/21/4 37/54/3 55/74/91
s 2
f 37/53/8 38/8/7 39/56/54 55/73/92
s 6
f 39/55/58 40/14/57 41/57/71 55/74/93
s 4
f 47/61/68 48/12/25 43/59/24 56/76/94
s 1
f 43/58/28 44/13/27 45/60/70 56/75/95
s 6
f 45/60/72 46/15/66 47/62/65 56/75/96
s 7
f 58/77/97 57/78/98 93/79/99 98/80/100
s 8
f 57/81/101 62/82/102 94/83/103 93/84/104
s 9
f 60/85/105 59/86/106 67/87/107 66/88/108
s 7
f 59/89/109 58/77/97 68/90/110 67/91/111
s 8
f 62/82/102 61/92/112 71/93/113 70/94/114
s 9
f 61/92/115 60/85/105 72/95/116 71/93/117
s 10
f 64/96/118 63/97/119 99/98/120 104/99/121
s 7
f 63/100/122 68/90/110 100/101/123 99/102/124
s 9
f 66/88/108 65/103/125 79/104/126 78/105/127
s 10
f 65/103/128 64/96/118 80/106/129 79/104/130
s 8
f 70/94/114 69/107/131 83/108/132 82/109/133
s 11
f 69/110/134 74/111/135 84/112/136 83/113/137
f 74/111/135 73/114/138 77/115/139 76/116/140
s 9
f 73/114/141 72/95/116 78/105/127 77/115/142
s 11
f 76/116/140 75/117/143 91/118/144 90/119/145
s 10
f 75/120/146 80/106/129 92/121/147 91/122/148
s 8
f 82/109/133 81/123/149 95/124/150 94/83/103
s 12
f 81/125/151 86/126/152 96/127/153 95/128/154
f 86/126/152 85/129/155 89/130/156 88/131/157
s 11
f 85/129/158 84/112/136 90/119/145 89/130/159
s 12
f 88/131/157 87/132/160 103/133/161 102/134/162
s 10
f 87/135/163 92/121/147 104/99/121 103/136/164
s 7
f 98/80/100 97/137/165 101/138/166 100/101/123
s 12
f 97/137/167 96/127/153 102/134/162 101/138/168
s 9
f 60/85/105 66/88/108 78/105/127 72/95/116
s 11
f 74/111/135 76/116/140 90/119/145 84/112/136
s 12
f 86/126/152 88/131/157 102/134/162 96/127/153
s 7
f 98/80/100 100/101/123 68/90/110 58/77/97
s 10
f 64/96/118 104/99/121 92/121/147 80/106/129
s 8
f 94/83/103 62/82/102 70/94/114 82/109/133
f 61/92/112 62/82/102 57/81/101 105/139/169
s 7
f 57/78/98 58/77/97 59/89/109 105/140/170
s 9
f 59/86/106 60/85/105 61/92/115 105/139/171
s 7
f 67/91/111 68/90/110 63/100/122 106/141/172
s 10
f 63/97/119 64/96/118 65/103/128 106/142/173
s 9
f 65/103/125 66/88/108 67/87/107 106/142/174
s 11
f 73/114/138 74/111/135 69/110/134 107/143/175
s 8
f 69/107/131 70/94/114 71/93/113 107/143/176
s 9
f 71/93/117 72/95/116 73/114/141 107/143/177
s 10
f 79/104/130 80/106/129 75/120/146 108/144/178
s 11
f 75/117/143 76/116/140 77/115/139 108/144/179
s 9
f 77/115/142 78/105/127 79/104/126 108/144/180
s 12
f 85/129/155 86/126/152 81/125/151 109/145/181
s 8
f 81/123/149 82/109/133 83/108/132 109/146/182
s 11
f 83/113/137 84/112/136 85/129/158 109/145/183
s 10
f 91/122/148 92/121/147 87/135/163 110/147/184
s 12
f 87/132/160 88/131/157 89/130/156 110/148/185
s 11
f 89/130/159 90/119/145 91/118/144 110/148/186
s 7
f 97/137/165 98/80/100 93/79/99 111/149/187
s 8
f 93/84/104 94/83/103 95/124/150 111/150/188
s 12
f 95/128/154 96/127/153 97/137/167 111/149/189
s 10
f 103/136/164 104/99/121 99/98/120 112/151/190
s 7
f 99/102/124 100/101/123 101/138/166 112/152/191
s 12
f 101/138/168 102/134/162 103/133/161 112/152/192
